<svg xmlns="http://www.w3.org/2000/svg" viewBox="0 -0.5 320 106" shape-rendering="crispEdges">
<metadata>Made with Pixels to Svg https://codepen.io/shshaw/pen/XbxvNj</metadata>
<path stroke="#000000" d="M5 0h65M86 0h65M167 0h65M249 0h65M3 1h2M70 1h2M84 1h2M151 1h2M165 1h2M232 1h2M247 1h2M314 1h2M2 2h1M72 2h1M83 2h1M153 2h1M164 2h1M234 2h1M246 2h1M316 2h1M1 3h1M73 3h1M82 3h1M154 3h1M163 3h1M235 3h1M245 3h1M317 3h1M1 4h1M73 4h1M82 4h1M154 4h1M163 4h1M235 4h1M245 4h1M317 4h1M0 5h1M74 5h1M81 5h1M155 5h1M162 5h1M236 5h1M244 5h1M318 5h1M0 6h1M10 6h2M74 6h1M81 6h1M87 6h3M94 6h3M155 6h1M162 6h1M170 6h5M236 6h1M244 6h1M253 6h7M318 6h1M0 7h1M10 7h2M74 7h1M81 7h1M88 7h1M95 7h1M155 7h1M162 7h1M169 7h1M175 7h1M236 7h1M244 7h1M257 7h1M318 7h1M0 8h1M9 8h1M12 8h1M17 8h48M74 8h1M81 8h1M88 8h1M94 8h1M98 8h48M155 8h1M162 8h1M168 8h1M176 8h1M179 8h48M236 8h1M244 8h1M257 8h1M261 8h48M318 8h1M0 9h1M9 9h1M12 9h1M65 9h1M74 9h1M81 9h1M88 9h1M93 9h1M146 9h1M155 9h1M162 9h1M168 9h1M176 9h1M227 9h1M236 9h1M244 9h1M257 9h1M309 9h1M318 9h1M0 10h1M9 10h1M12 10h1M66 10h1M74 10h1M81 10h1M88 10h1M92 10h1M147 10h1M155 10h1M162 10h1M168 10h1M176 10h1M228 10h1M236 10h1M244 10h1M257 10h1M310 10h1M318 10h1M0 11h1M8 11h1M13 11h1M66 11h1M74 11h1M81 11h1M88 11h1M90 11h2M147 11h1M155 11h1M162 11h1M168 11h1M176 11h1M228 11h1M236 11h1M244 11h1M257 11h1M310 11h1M318 11h1M0 12h1M8 12h1M13 12h1M66 12h1M74 12h1M81 12h1M88 12h3M147 12h1M155 12h1M162 12h1M168 12h1M176 12h1M228 12h1M236 12h1M244 12h1M257 12h1M310 12h1M318 12h1M0 13h1M8 13h6M66 13h1M74 13h1M81 13h1M88 13h1M90 13h2M147 13h1M155 13h1M162 13h1M168 13h1M176 13h1M228 13h1M236 13h1M244 13h1M257 13h1M310 13h1M318 13h1M0 14h1M8 14h1M13 14h1M66 14h1M74 14h1M81 14h1M88 14h1M92 14h1M147 14h1M155 14h1M162 14h1M168 14h1M176 14h1M228 14h1M236 14h1M244 14h1M257 14h1M310 14h1M318 14h1M0 15h1M7 15h1M14 15h1M66 15h1M74 15h1M81 15h1M88 15h1M93 15h1M147 15h1M155 15h1M162 15h1M168 15h1M173 15h1M176 15h1M228 15h1M236 15h1M244 15h1M257 15h1M310 15h1M318 15h1M0 16h1M7 16h1M14 16h1M66 16h1M74 16h1M81 16h1M88 16h1M94 16h1M147 16h1M155 16h1M162 16h1M168 16h1M174 16h1M176 16h1M228 16h1M236 16h1M244 16h1M250 16h1M257 16h1M310 16h1M318 16h1M0 17h1M7 17h1M14 17h1M66 17h1M74 17h1M81 17h1M88 17h1M95 17h1M147 17h1M155 17h1M162 17h1M169 17h1M175 17h1M228 17h1M236 17h1M244 17h1M250 17h1M256 17h1M310 17h1M318 17h1M0 18h1M6 18h3M12 18h4M66 18h1M74 18h1M81 18h1M87 18h3M94 18h3M147 18h1M155 18h1M162 18h1M170 18h5M176 18h2M228 18h1M236 18h1M244 18h1M251 18h5M310 18h1M318 18h1M0 19h1M66 19h1M74 19h1M81 19h1M147 19h1M155 19h1M162 19h1M181 19h2M228 19h1M236 19h1M244 19h1M310 19h1M318 19h1M0 20h1M8 20h1M66 20h1M74 20h1M81 20h1M89 20h1M147 20h1M155 20h1M162 20h1M170 20h1M180 20h4M193 20h1M195 20h1M197 20h1M199 20h1M201 20h1M203 20h1M205 20h1M228 20h1M236 20h1M244 20h1M252 20h1M310 20h1M318 20h1M0 21h1M8 21h1M66 21h1M74 21h1M81 21h1M89 21h1M147 21h1M155 21h1M162 21h1M170 21h1M180 21h4M228 21h1M236 21h1M244 21h1M252 21h1M310 21h1M318 21h1M0 22h1M8 22h1M66 22h1M74 22h1M81 22h1M89 22h1M111 22h1M113 22h1M115 22h1M117 22h1M119 22h1M121 22h1M123 22h1M147 22h1M155 22h1M162 22h1M170 22h1M181 22h3M228 22h1M236 22h1M244 22h1M252 22h1M310 22h1M318 22h1M0 23h1M8 23h1M66 23h1M74 23h1M81 23h1M89 23h1M147 23h1M155 23h1M162 23h1M170 23h1M179 23h2M182 23h1M184 23h1M228 23h1M236 23h1M244 23h1M252 23h1M310 23h1M318 23h1M0 24h1M8 24h1M66 24h1M74 24h1M81 24h1M89 24h1M147 24h1M155 24h1M162 24h1M170 24h1M178 24h8M228 24h1M236 24h1M244 24h1M252 24h1M310 24h1M318 24h1M0 25h1M8 25h1M66 25h1M74 25h1M81 25h1M89 25h1M147 25h1M155 25h1M162 25h1M170 25h1M178 25h8M228 25h1M236 25h1M244 25h1M252 25h1M310 25h1M318 25h1M0 26h1M8 26h1M66 26h1M74 26h1M81 26h1M89 26h1M147 26h1M155 26h1M162 26h1M170 26h1M178 26h8M228 26h1M236 26h1M244 26h1M252 26h1M310 26h1M318 26h1M0 27h1M8 27h1M66 27h1M74 27h1M81 27h1M89 27h1M147 27h1M155 27h1M162 27h1M170 27h1M179 27h2M182 27h1M184 27h1M228 27h1M236 27h1M244 27h1M252 27h1M310 27h1M318 27h1M0 28h1M8 28h1M66 28h1M74 28h1M81 28h1M89 28h1M147 28h1M155 28h1M162 28h1M170 28h1M182 28h1M228 28h1M236 28h1M244 28h1M252 28h1M310 28h1M318 28h1M0 29h1M8 29h1M66 29h1M74 29h1M81 29h1M89 29h1M147 29h1M155 29h1M162 29h1M170 29h1M181 29h2M193 29h1M228 29h1M236 29h1M244 29h1M252 29h1M310 29h1M318 29h1M0 30h1M8 30h1M66 30h1M74 30h1M81 30h1M89 30h1M147 30h1M155 30h1M162 30h1M170 30h1M192 30h2M228 30h1M236 30h1M244 30h1M252 30h1M310 30h1M318 30h1M0 31h1M8 31h1M66 31h1M74 31h1M81 31h1M89 31h1M147 31h1M155 31h1M162 31h1M170 31h1M192 31h2M228 31h1M236 31h1M244 31h1M252 31h1M310 31h1M318 31h1M0 32h1M8 32h1M35 32h2M66 32h1M74 32h1M81 32h1M89 32h1M147 32h1M155 32h1M162 32h1M170 32h1M193 32h1M228 32h1M236 32h1M244 32h1M252 32h1M310 32h1M318 32h1M0 33h1M8 33h1M34 33h4M66 33h1M74 33h1M81 33h1M89 33h1M147 33h1M155 33h1M162 33h1M170 33h1M193 33h1M228 33h1M236 33h1M244 33h1M252 33h1M310 33h1M318 33h1M0 34h1M8 34h1M33 34h6M66 34h1M74 34h1M81 34h1M89 34h1M147 34h1M155 34h1M162 34h1M170 34h1M228 34h1M236 34h1M244 34h1M252 34h1M310 34h1M318 34h1M0 35h1M8 35h1M32 35h8M66 35h1M74 35h1M81 35h1M89 35h1M147 35h1M155 35h1M162 35h1M170 35h1M228 35h1M236 35h1M244 35h1M252 35h1M310 35h1M318 35h1M0 36h1M8 36h1M31 36h10M66 36h1M74 36h1M81 36h1M89 36h1M147 36h1M155 36h1M162 36h1M170 36h1M228 36h1M236 36h1M244 36h1M252 36h1M276 36h10M310 36h1M318 36h1M0 37h1M8 37h1M30 37h12M66 37h1M74 37h1M81 37h1M89 37h1M147 37h1M155 37h1M162 37h1M170 37h1M198 37h5M228 37h1M236 37h1M244 37h1M252 37h1M276 37h10M310 37h1M318 37h1M0 38h1M8 38h1M29 38h14M66 38h1M74 38h1M81 38h1M89 38h1M111 38h4M117 38h6M125 38h3M147 38h1M155 38h1M162 38h1M170 38h1M228 38h1M236 38h1M244 38h1M252 38h1M272 38h2M275 38h2M285 38h2M288 38h1M310 38h1M318 38h1M0 39h1M8 39h1M28 39h16M66 39h1M74 39h1M81 39h1M89 39h1M111 39h2M114 39h1M118 39h4M125 39h1M127 39h1M147 39h1M155 39h1M162 39h1M170 39h1M198 39h1M200 39h1M202 39h1M228 39h1M236 39h1M244 39h1M252 39h1M273 39h2M276 39h2M284 39h2M287 39h2M310 39h1M318 39h1M0 40h1M8 40h1M27 40h18M66 40h1M74 40h1M81 40h1M89 40h1M111 40h4M118 40h4M125 40h3M147 40h1M155 40h1M162 40h1M170 40h1M194 40h2M204 40h2M228 40h1M236 40h1M244 40h1M252 40h1M274 40h2M277 40h3M282 40h3M286 40h2M310 40h1M318 40h1M0 41h1M8 41h1M26 41h20M66 41h1M74 41h1M81 41h1M89 41h1M111 41h2M114 41h1M118 41h1M121 41h1M125 41h1M127 41h1M147 41h1M155 41h1M162 41h1M170 41h1M196 41h8M228 41h1M236 41h1M244 41h1M252 41h1M275 41h2M278 41h6M285 41h2M310 41h1M318 41h1M0 42h1M8 42h1M26 42h21M66 42h1M74 42h1M81 42h1M89 42h1M111 42h4M118 42h1M121 42h1M125 42h3M147 42h1M155 42h1M162 42h1M170 42h1M228 42h1M236 42h1M244 42h1M252 42h1M276 42h1M280 42h2M284 42h2M310 42h1M318 42h1M0 43h1M8 43h1M25 43h23M66 43h1M74 43h1M81 43h1M89 43h1M111 43h2M114 43h1M118 43h4M125 43h1M127 43h1M147 43h1M155 43h1M162 43h1M170 43h1M228 43h1M236 43h1M244 43h1M252 43h1M276 43h1M284 43h1M310 43h1M318 43h1M0 44h1M8 44h1M24 44h25M66 44h1M74 44h1M81 44h1M89 44h1M111 44h4M118 44h4M125 44h3M147 44h1M155 44h1M162 44h1M170 44h1M198 44h4M228 44h1M236 44h1M244 44h1M252 44h1M276 44h1M278 44h5M284 44h1M310 44h1M318 44h1M0 45h1M8 45h1M23 45h26M66 45h1M74 45h1M81 45h1M89 45h1M111 45h2M114 45h1M118 45h1M121 45h1M125 45h1M127 45h1M147 45h1M155 45h1M162 45h1M170 45h1M197 45h2M201 45h2M228 45h1M236 45h1M244 45h1M252 45h1M276 45h1M278 45h1M282 45h1M284 45h1M310 45h1M318 45h1M0 46h1M8 46h1M23 46h27M66 46h1M74 46h1M81 46h1M89 46h1M111 46h4M118 46h1M121 46h1M125 46h3M147 46h1M155 46h1M162 46h1M170 46h1M197 46h1M202 46h1M228 46h1M236 46h1M244 46h1M252 46h1M276 46h1M278 46h1M282 46h1M284 46h1M310 46h1M318 46h1M0 47h1M8 47h1M22 47h29M66 47h1M74 47h1M81 47h1M89 47h1M111 47h2M114 47h1M118 47h4M125 47h1M127 47h1M147 47h1M155 47h1M162 47h1M170 47h1M197 47h1M202 47h1M228 47h1M236 47h1M244 47h1M252 47h1M276 47h1M278 47h1M282 47h1M284 47h1M310 47h1M318 47h1M0 48h1M8 48h1M22 48h29M66 48h1M74 48h1M81 48h1M89 48h1M111 48h4M118 48h4M125 48h3M147 48h1M155 48h1M162 48h1M170 48h1M197 48h2M201 48h2M228 48h1M236 48h1M244 48h1M252 48h1M276 48h1M278 48h1M282 48h1M284 48h1M310 48h1M318 48h1M0 49h1M8 49h1M21 49h31M66 49h1M74 49h1M81 49h1M89 49h1M111 49h2M114 49h1M118 49h1M121 49h1M125 49h1M127 49h1M147 49h1M155 49h1M162 49h1M170 49h1M197 49h6M228 49h1M236 49h1M244 49h1M252 49h1M276 49h1M278 49h1M282 49h1M284 49h1M310 49h1M318 49h1M0 50h1M8 50h1M21 50h31M66 50h1M74 50h1M81 50h1M89 50h1M111 50h4M118 50h1M121 50h1M125 50h3M147 50h1M155 50h1M162 50h1M170 50h1M197 50h2M201 50h2M228 50h1M236 50h1M244 50h1M252 50h1M276 50h1M278 50h1M282 50h1M284 50h1M310 50h1M318 50h1M0 51h1M8 51h1M20 51h32M66 51h1M74 51h1M81 51h1M89 51h1M111 51h2M114 51h1M118 51h4M125 51h1M127 51h1M147 51h1M155 51h1M162 51h1M170 51h1M197 51h6M228 51h1M236 51h1M244 51h1M252 51h1M276 51h1M278 51h1M282 51h1M284 51h1M310 51h1M318 51h1M0 52h1M8 52h1M20 52h33M66 52h1M74 52h1M81 52h1M89 52h1M147 52h1M155 52h1M162 52h1M170 52h1M228 52h1M236 52h1M244 52h1M252 52h1M310 52h1M318 52h1M0 53h1M8 53h1M20 53h33M66 53h1M74 53h1M81 53h1M89 53h1M110 53h1M112 53h1M116 53h4M123 53h1M125 53h2M147 53h1M155 53h1M162 53h1M170 53h1M196 53h6M228 53h1M236 53h1M244 53h1M252 53h1M278 53h1M280 53h1M284 53h1M286 53h1M310 53h1M318 53h1M0 54h1M8 54h1M19 54h34M66 54h1M74 54h1M81 54h1M89 54h1M110 54h3M116 54h1M119 54h1M123 54h4M147 54h1M155 54h1M162 54h1M170 54h1M196 54h2M200 54h2M228 54h1M236 54h1M244 54h1M252 54h1M278 54h1M280 54h1M284 54h1M286 54h1M310 54h1M318 54h1M0 55h1M8 55h1M19 55h34M66 55h1M74 55h1M81 55h1M89 55h1M110 55h1M112 55h1M116 55h1M119 55h1M123 55h1M125 55h2M147 55h1M155 55h1M162 55h1M170 55h1M196 55h6M228 55h1M236 55h1M244 55h1M252 55h1M278 55h1M280 55h1M284 55h1M286 55h1M310 55h1M318 55h1M0 56h1M8 56h1M19 56h35M66 56h1M74 56h1M81 56h1M89 56h1M110 56h3M116 56h4M123 56h4M147 56h1M155 56h1M162 56h1M170 56h1M196 56h2M200 56h2M228 56h1M236 56h1M244 56h1M252 56h1M278 56h1M280 56h1M284 56h1M286 56h1M310 56h1M318 56h1M0 57h1M8 57h1M19 57h35M66 57h1M74 57h1M81 57h1M89 57h1M110 57h1M112 57h1M116 57h4M123 57h1M125 57h2M147 57h1M155 57h1M162 57h1M170 57h1M196 57h1M201 57h1M228 57h1M236 57h1M244 57h1M252 57h1M278 57h1M280 57h1M284 57h1M286 57h1M310 57h1M318 57h1M0 58h1M8 58h1M19 58h35M66 58h1M74 58h1M81 58h1M89 58h1M110 58h3M116 58h1M119 58h1M123 58h4M147 58h1M155 58h1M162 58h1M170 58h1M196 58h1M201 58h1M228 58h1M236 58h1M244 58h1M252 58h1M278 58h1M280 58h1M284 58h1M286 58h1M310 58h1M318 58h1M0 59h1M8 59h1M19 59h35M66 59h1M74 59h1M81 59h1M89 59h1M110 59h1M112 59h1M116 59h1M119 59h1M123 59h1M125 59h2M147 59h1M155 59h1M162 59h1M170 59h1M196 59h2M200 59h2M228 59h1M236 59h1M244 59h1M252 59h1M278 59h1M280 59h1M284 59h1M286 59h1M310 59h1M318 59h1M0 60h1M8 60h1M19 60h35M66 60h1M74 60h1M81 60h1M89 60h1M110 60h3M116 60h4M123 60h4M147 60h1M155 60h1M162 60h1M170 60h1M197 60h4M228 60h1M236 60h1M244 60h1M252 60h1M278 60h1M280 60h5M286 60h1M310 60h1M318 60h1M0 61h1M8 61h1M19 61h34M66 61h1M74 61h1M81 61h1M89 61h1M110 61h1M112 61h1M116 61h4M123 61h1M125 61h2M147 61h1M155 61h1M162 61h1M170 61h1M228 61h1M236 61h1M244 61h1M252 61h1M278 61h1M286 61h1M310 61h1M318 61h1M0 62h1M8 62h1M20 62h33M66 62h1M74 62h1M81 62h1M89 62h1M110 62h3M116 62h1M119 62h1M123 62h4M147 62h1M155 62h1M162 62h1M170 62h1M228 62h1M236 62h1M244 62h1M252 62h1M277 62h2M281 62h2M286 62h1M310 62h1M318 62h1M0 63h1M8 63h1M20 63h31M66 63h1M74 63h1M81 63h1M89 63h1M110 63h1M112 63h1M116 63h1M119 63h1M123 63h1M125 63h2M147 63h1M155 63h1M162 63h1M170 63h1M195 63h8M228 63h1M236 63h1M244 63h1M252 63h1M276 63h2M279 63h6M286 63h2M310 63h1M318 63h1M0 64h1M8 64h1M21 64h13M36 64h3M41 64h9M66 64h1M74 64h1M81 64h1M89 64h1M110 64h3M116 64h4M123 64h4M147 64h1M155 64h1M162 64h1M170 64h1M193 64h2M203 64h2M228 64h1M236 64h1M244 64h1M252 64h1M275 64h2M278 64h3M283 64h3M287 64h2M310 64h1M318 64h1M0 65h1M8 65h1M22 65h11M36 65h3M42 65h7M66 65h1M74 65h1M81 65h1M89 65h1M110 65h1M112 65h1M116 65h4M123 65h1M125 65h2M147 65h1M155 65h1M162 65h1M170 65h1M196 65h1M198 65h1M200 65h1M228 65h1M236 65h1M244 65h1M252 65h1M274 65h2M277 65h2M285 65h2M288 65h2M310 65h1M318 65h1M0 66h1M8 66h1M24 66h7M36 66h3M44 66h4M66 66h1M74 66h1M81 66h1M89 66h1M110 66h3M115 66h6M123 66h4M147 66h1M155 66h1M162 66h1M170 66h1M228 66h1M236 66h1M244 66h1M252 66h1M274 66h1M276 66h2M286 66h2M289 66h2M310 66h1M318 66h1M0 67h1M8 67h1M36 67h3M66 67h1M74 67h1M81 67h1M89 67h1M147 67h1M155 67h1M162 67h1M170 67h1M196 67h5M228 67h1M236 67h1M244 67h1M252 67h1M277 67h10M310 67h1M318 67h1M0 68h1M8 68h1M36 68h3M66 68h1M74 68h1M81 68h1M89 68h1M147 68h1M155 68h1M162 68h1M170 68h1M228 68h1M236 68h1M244 68h1M252 68h1M277 68h10M310 68h1M318 68h1M0 69h1M8 69h1M35 69h4M66 69h1M74 69h1M81 69h1M89 69h1M147 69h1M155 69h1M162 69h1M170 69h1M228 69h1M236 69h1M244 69h1M252 69h1M310 69h1M318 69h1M0 70h1M8 70h1M35 70h4M66 70h1M74 70h1M81 70h1M89 70h1M147 70h1M155 70h1M162 70h1M170 70h1M228 70h1M236 70h1M244 70h1M252 70h1M310 70h1M318 70h1M0 71h1M8 71h1M34 71h5M66 71h1M74 71h1M81 71h1M89 71h1M147 71h1M155 71h1M162 71h1M170 71h1M205 71h1M228 71h1M236 71h1M244 71h1M252 71h1M310 71h1M318 71h1M0 72h1M8 72h1M33 72h7M66 72h1M74 72h1M81 72h1M89 72h1M147 72h1M155 72h1M162 72h1M170 72h1M205 72h1M228 72h1M236 72h1M244 72h1M252 72h1M310 72h1M318 72h1M0 73h1M8 73h1M32 73h9M66 73h1M74 73h1M81 73h1M89 73h1M147 73h1M155 73h1M162 73h1M170 73h1M205 73h2M228 73h1M236 73h1M244 73h1M252 73h1M310 73h1M318 73h1M0 74h1M8 74h1M30 74h12M66 74h1M74 74h1M81 74h1M89 74h1M147 74h1M155 74h1M162 74h1M170 74h1M205 74h2M228 74h1M236 74h1M244 74h1M252 74h1M310 74h1M318 74h1M0 75h1M8 75h1M66 75h1M74 75h1M81 75h1M89 75h1M147 75h1M155 75h1M162 75h1M170 75h1M205 75h1M216 75h2M228 75h1M236 75h1M244 75h1M252 75h1M310 75h1M318 75h1M0 76h1M8 76h1M66 76h1M74 76h1M81 76h1M89 76h1M147 76h1M155 76h1M162 76h1M170 76h1M216 76h1M228 76h1M236 76h1M244 76h1M252 76h1M310 76h1M318 76h1M0 77h1M8 77h1M66 77h1M74 77h1M81 77h1M89 77h1M147 77h1M155 77h1M162 77h1M170 77h1M214 77h1M216 77h1M218 77h2M228 77h1M236 77h1M244 77h1M252 77h1M310 77h1M318 77h1M0 78h1M8 78h1M66 78h1M74 78h1M81 78h1M89 78h1M147 78h1M155 78h1M162 78h1M170 78h1M213 78h8M228 78h1M236 78h1M244 78h1M252 78h1M310 78h1M318 78h1M0 79h1M8 79h1M66 79h1M74 79h1M81 79h1M89 79h1M147 79h1M155 79h1M162 79h1M170 79h1M213 79h8M228 79h1M236 79h1M244 79h1M252 79h1M310 79h1M318 79h1M0 80h1M8 80h1M66 80h1M74 80h1M81 80h1M89 80h1M147 80h1M155 80h1M162 80h1M170 80h1M213 80h8M228 80h1M236 80h1M244 80h1M252 80h1M310 80h1M318 80h1M0 81h1M8 81h1M66 81h1M74 81h1M81 81h1M89 81h1M147 81h1M155 81h1M162 81h1M170 81h1M214 81h1M216 81h1M218 81h2M228 81h1M236 81h1M244 81h1M252 81h1M310 81h1M318 81h1M0 82h1M8 82h1M66 82h1M74 82h1M81 82h1M89 82h1M114 82h1M116 82h1M118 82h1M120 82h1M122 82h1M124 82h1M126 82h1M147 82h1M155 82h1M162 82h1M170 82h1M215 82h3M228 82h1M236 82h1M244 82h1M252 82h1M310 82h1M318 82h1M0 83h1M8 83h1M66 83h1M74 83h1M81 83h1M89 83h1M147 83h1M155 83h1M162 83h1M170 83h1M215 83h4M228 83h1M236 83h1M244 83h1M252 83h1M310 83h1M318 83h1M0 84h1M8 84h1M66 84h1M74 84h1M81 84h1M89 84h1M147 84h1M155 84h1M162 84h1M170 84h1M193 84h1M195 84h1M197 84h1M199 84h1M201 84h1M203 84h1M205 84h1M215 84h4M228 84h1M236 84h1M244 84h1M252 84h1M310 84h1M318 84h1M0 85h1M8 85h1M74 85h1M81 85h1M89 85h1M155 85h1M162 85h1M170 85h1M216 85h2M236 85h1M244 85h1M252 85h1M318 85h1M0 86h1M8 86h1M59 86h4M66 86h3M74 86h1M81 86h1M89 86h1M140 86h3M147 86h3M155 86h1M162 86h1M170 86h1M221 86h2M224 86h5M236 86h1M244 86h1M252 86h1M307 86h5M318 86h1M0 87h1M8 87h1M60 87h1M67 87h1M74 87h1M81 87h1M89 87h1M141 87h1M148 87h1M155 87h1M162 87h1M170 87h1M223 87h1M229 87h1M236 87h1M244 87h1M252 87h1M306 87h1M312 87h1M318 87h1M0 88h1M8 88h1M60 88h1M67 88h1M74 88h1M81 88h1M89 88h1M142 88h1M148 88h1M155 88h1M162 88h1M170 88h1M222 88h1M224 88h1M230 88h1M236 88h1M244 88h1M252 88h1M305 88h1M312 88h1M318 88h1M0 89h1M8 89h1M60 89h1M67 89h1M74 89h1M81 89h1M89 89h1M143 89h1M148 89h1M155 89h1M162 89h1M170 89h1M222 89h1M225 89h1M230 89h1M236 89h1M244 89h1M252 89h1M305 89h1M318 89h1M0 90h1M8 90h1M61 90h1M66 90h1M74 90h1M81 90h1M89 90h1M144 90h1M148 90h1M155 90h1M162 90h1M170 90h1M222 90h1M230 90h1M236 90h1M244 90h1M252 90h1M305 90h1M318 90h1M0 91h1M8 91h1M61 91h6M74 91h1M81 91h1M89 91h1M145 91h2M148 91h1M155 91h1M162 91h1M170 91h1M222 91h1M230 91h1M236 91h1M244 91h1M252 91h1M305 91h1M318 91h1M0 92h1M8 92h1M61 92h1M66 92h1M74 92h1M81 92h1M89 92h1M146 92h3M155 92h1M162 92h1M170 92h1M222 92h1M230 92h1M236 92h1M244 92h1M252 92h1M305 92h1M318 92h1M0 93h1M8 93h1M61 93h1M66 93h1M74 93h1M81 93h1M89 93h1M145 93h2M148 93h1M155 93h1M162 93h1M170 93h1M222 93h1M230 93h1M236 93h1M244 93h1M252 93h1M305 93h1M318 93h1M0 94h1M8 94h1M62 94h1M65 94h1M74 94h1M81 94h1M89 94h1M144 94h1M148 94h1M155 94h1M162 94h1M170 94h1M222 94h1M230 94h1M236 94h1M244 94h1M252 94h1M305 94h1M318 94h1M0 95h1M9 95h1M62 95h1M65 95h1M74 95h1M81 95h1M90 95h1M143 95h1M148 95h1M155 95h1M162 95h1M171 95h1M222 95h1M230 95h1M236 95h1M244 95h1M253 95h1M305 95h1M318 95h1M0 96h1M10 96h48M62 96h1M65 96h1M74 96h1M81 96h1M91 96h48M142 96h1M148 96h1M155 96h1M162 96h1M172 96h48M222 96h1M230 96h1M236 96h1M244 96h1M254 96h48M305 96h1M318 96h1M0 97h1M63 97h2M74 97h1M81 97h1M141 97h1M148 97h1M155 97h1M162 97h1M223 97h1M229 97h1M236 97h1M244 97h1M305 97h1M318 97h1M0 98h1M63 98h2M74 98h1M81 98h1M140 98h3M147 98h3M155 98h1M162 98h1M224 98h5M236 98h1M244 98h1M303 98h7M318 98h1M0 99h1M74 99h1M81 99h1M155 99h1M162 99h1M236 99h1M244 99h1M318 99h1M1 100h1M73 100h1M82 100h1M154 100h1M163 100h1M235 100h1M245 100h1M317 100h1M1 101h1M73 101h1M82 101h1M154 101h1M163 101h1M235 101h1M245 101h1M317 101h1M2 102h1M72 102h1M83 102h1M153 102h1M164 102h1M234 102h1M246 102h1M316 102h1M3 103h2M70 103h2M84 103h2M151 103h2M165 103h2M232 103h2M247 103h2M314 103h2M5 104h65M86 104h65M167 104h65M249 104h65" />
<path stroke="#ffffff" d="M5 1h65M86 1h65M167 1h65M249 1h65M3 2h69M84 2h69M165 2h69M247 2h69M2 3h71M83 3h71M164 3h71M246 3h71M2 4h71M83 4h71M164 4h71M246 4h71M1 5h73M82 5h73M163 5h73M245 5h73M1 6h9M12 6h62M82 6h5M90 6h4M97 6h58M163 6h7M175 6h61M245 6h8M260 6h58M1 7h9M12 7h62M82 7h6M89 7h6M96 7h59M163 7h6M170 7h5M176 7h60M245 7h12M258 7h60M1 8h8M10 8h2M13 8h4M65 8h9M82 8h6M89 8h5M95 8h3M146 8h9M163 8h5M169 8h7M177 8h2M227 8h9M245 8h12M258 8h3M309 8h9M1 9h8M10 9h2M13 9h52M66 9h8M82 9h6M89 9h4M94 9h52M147 9h8M163 9h5M169 9h7M177 9h50M228 9h8M245 9h12M258 9h51M310 9h8M1 10h8M10 10h2M13 10h53M67 10h7M82 10h6M89 10h3M93 10h54M148 10h7M163 10h5M169 10h7M177 10h51M229 10h7M245 10h12M258 10h52M311 10h7M1 11h7M9 11h4M14 11h52M67 11h7M82 11h6M89 11h1M92 11h55M148 11h7M163 11h5M169 11h7M177 11h51M229 11h7M245 11h12M258 11h52M311 11h7M1 12h7M9 12h4M14 12h52M67 12h7M82 12h6M91 12h56M148 12h7M163 12h5M169 12h7M177 12h51M229 12h7M245 12h12M258 12h52M311 12h7M1 13h7M14 13h52M67 13h7M82 13h6M89 13h1M92 13h55M148 13h7M163 13h5M169 13h7M177 13h51M229 13h7M245 13h12M258 13h52M311 13h7M1 14h7M9 14h4M14 14h52M67 14h7M82 14h6M89 14h3M93 14h54M148 14h7M163 14h5M169 14h7M177 14h51M229 14h7M245 14h12M258 14h52M311 14h7M1 15h6M8 15h6M15 15h51M67 15h7M82 15h6M89 15h4M94 15h53M148 15h7M163 15h5M169 15h4M174 15h2M177 15h51M229 15h7M245 15h12M258 15h52M311 15h7M1 16h6M8 16h6M15 16h51M67 16h7M82 16h6M89 16h5M95 16h52M148 16h7M163 16h5M169 16h5M175 16h1M177 16h51M229 16h7M245 16h5M251 16h6M258 16h52M311 16h7M1 17h6M8 17h6M15 17h51M67 17h7M82 17h6M89 17h6M96 17h51M148 17h7M163 17h6M170 17h5M176 17h52M229 17h7M245 17h5M251 17h5M257 17h53M311 17h7M1 18h5M9 18h3M16 18h50M67 18h7M82 18h5M90 18h4M97 18h50M148 18h7M163 18h7M175 18h1M178 18h50M229 18h7M245 18h6M256 18h54M311 18h7M1 19h65M67 19h7M82 19h16M101 19h1M105 19h3M127 19h8M136 19h11M148 19h7M163 19h18M184 19h7M207 19h7M216 19h12M229 19h7M245 19h19M265 19h4M288 19h6M295 19h4M302 19h8M311 19h7M1 20h7M9 20h57M67 20h7M82 20h7M90 20h7M106 20h3M126 20h8M137 20h10M148 20h7M163 20h7M171 20h9M185 20h6M207 20h6M217 20h11M229 20h7M245 20h7M253 20h10M266 20h4M287 20h7M303 20h7M311 20h7M1 21h7M9 21h57M67 21h7M82 21h7M90 21h7M106 21h3M126 21h7M138 21h9M148 21h7M163 21h7M171 21h9M185 21h5M207 21h6M217 21h11M229 21h7M245 21h7M253 21h9M267 21h3M287 21h7M303 21h7M311 21h7M1 22h7M9 22h57M67 22h7M82 22h7M90 22h7M106 22h3M126 22h7M138 22h9M148 22h7M163 22h7M171 22h10M184 22h6M207 22h5M218 22h10M229 22h7M245 22h7M253 22h9M267 22h3M287 22h7M303 22h7M311 22h7M1 23h7M9 23h57M67 23h7M82 23h7M90 23h7M106 23h4M125 23h8M138 23h9M148 23h7M163 23h7M171 23h8M181 23h1M183 23h1M186 23h3M207 23h5M218 23h10M229 23h7M245 23h7M253 23h8M268 23h3M286 23h8M303 23h7M311 23h7M1 24h7M9 24h57M67 24h7M82 24h7M90 24h7M106 24h4M125 24h8M138 24h9M148 24h7M163 24h7M171 24h7M187 24h2M207 24h5M218 24h10M229 24h7M245 24h7M253 24h7M269 24h2M286 24h8M303 24h7M311 24h7M1 25h7M9 25h57M67 25h7M82 25h7M90 25h8M105 25h5M125 25h8M138 25h9M148 25h7M163 25h7M171 25h7M187 25h1M207 25h6M217 25h11M229 25h7M245 25h7M253 25h8M268 25h3M286 25h8M303 25h7M311 25h7M1 26h7M9 26h57M67 26h7M82 26h7M90 26h8M105 26h5M125 26h8M138 26h9M148 26h7M163 26h7M171 26h7M187 26h1M207 26h6M217 26h11M229 26h7M245 26h7M253 26h9M267 26h4M286 26h8M296 26h2M302 26h8M311 26h7M1 27h7M9 27h57M67 27h7M82 27h7M90 27h9M104 27h6M125 27h8M138 27h9M148 27h7M163 27h7M171 27h8M181 27h1M183 27h1M186 27h1M207 27h7M216 27h12M229 27h7M245 27h7M253 27h9M267 27h4M286 27h8M296 27h3M301 27h9M311 27h7M1 28h7M9 28h57M67 28h7M82 28h7M90 28h10M103 28h7M125 28h8M138 28h9M148 28h7M163 28h7M171 28h11M183 28h4M207 28h7M216 28h12M229 28h7M245 28h7M253 28h10M266 28h5M286 28h8M296 28h14M311 28h7M1 29h7M9 29h57M67 29h7M82 29h7M90 29h11M102 29h8M125 29h8M138 29h9M148 29h7M163 29h7M171 29h10M184 29h3M207 29h7M216 29h12M229 29h7M245 29h7M253 29h11M265 29h6M286 29h8M296 29h14M311 29h7M1 30h7M9 30h57M67 30h7M82 30h7M90 30h20M125 30h8M138 30h9M148 30h7M163 30h7M171 30h17M207 30h7M216 30h12M229 30h7M245 30h7M253 30h18M286 30h8M296 30h14M311 30h7M1 31h7M9 31h27M39 31h27M67 31h7M82 31h7M90 31h20M125 31h8M138 31h9M148 31h7M163 31h7M171 31h16M207 31h7M216 31h12M229 31h7M245 31h7M253 31h18M286 31h8M296 31h14M311 31h7M1 32h7M9 32h26M40 32h26M67 32h7M82 32h7M90 32h18M125 32h8M138 32h9M148 32h7M163 32h7M171 32h16M191 32h2M207 32h7M216 32h12M229 32h7M245 32h7M253 32h16M286 32h8M296 32h14M311 32h7M1 33h7M9 33h25M41 33h25M67 33h7M82 33h7M90 33h18M125 33h8M138 33h9M148 33h7M163 33h7M171 33h15M189 33h4M207 33h7M216 33h12M229 33h7M245 33h7M253 33h16M286 33h8M296 33h14M311 33h7M1 34h7M9 34h24M42 34h24M67 34h7M82 34h7M90 34h18M125 34h8M138 34h9M148 34h7M163 34h7M171 34h14M189 34h6M207 34h7M216 34h12M229 34h7M245 34h7M253 34h16M286 34h8M296 34h14M311 34h7M1 35h7M9 35h23M43 35h23M67 35h7M82 35h7M90 35h18M125 35h8M138 35h9M148 35h7M163 35h7M171 35h25M206 35h8M216 35h12M229 35h7M245 35h7M253 35h16M286 35h8M296 35h14M311 35h7M1 36h7M9 36h22M44 36h22M67 36h7M82 36h7M90 36h18M125 36h8M138 36h9M148 36h7M163 36h7M171 36h26M206 36h8M216 36h12M229 36h7M245 36h7M253 36h16M286 36h8M296 36h14M311 36h7M1 37h7M9 37h21M45 37h21M67 37h7M82 37h7M90 37h19M113 37h2M125 37h8M138 37h9M148 37h7M163 37h7M171 37h26M204 37h10M216 37h12M229 37h7M245 37h7M253 37h17M274 37h2M286 37h8M296 37h14M311 37h7M1 38h7M9 38h20M46 38h20M67 38h7M82 38h7M90 38h19M129 38h4M138 38h9M148 38h7M163 38h7M171 38h25M205 38h9M216 38h12M229 38h7M245 38h7M253 38h17M290 38h4M296 38h14M311 38h7M1 39h7M9 39h19M47 39h19M67 39h7M82 39h7M90 39h18M130 39h3M138 39h9M148 39h7M163 39h7M171 39h23M206 39h8M216 39h12M229 39h7M245 39h7M253 39h16M291 39h3M296 39h14M311 39h7M1 40h7M9 40h18M48 40h18M67 40h7M82 40h7M90 40h17M131 40h2M138 40h9M148 40h7M163 40h7M171 40h22M208 40h6M216 40h12M229 40h7M245 40h7M253 40h15M292 40h2M296 40h14M311 40h7M1 41h7M9 41h17M49 41h17M67 41h7M82 41h7M90 41h17M132 41h1M138 41h9M148 41h7M163 41h7M171 41h20M210 41h4M216 41h12M229 41h7M245 41h7M253 41h15M293 41h1M296 41h14M311 41h7M1 42h7M9 42h17M49 42h17M67 42h7M82 42h7M90 42h16M132 42h1M138 42h9M148 42h7M163 42h7M171 42h18M211 42h3M216 42h12M229 42h7M245 42h7M253 42h14M293 42h1M296 42h14M311 42h7M1 43h7M9 43h16M50 43h16M67 43h7M82 43h7M90 43h16M132 43h1M138 43h9M148 43h7M163 43h7M171 43h17M212 43h2M216 43h12M229 43h7M245 43h7M253 43h13M293 43h1M296 43h14M311 43h7M1 44h7M9 44h15M51 44h15M67 44h7M82 44h7M90 44h16M132 44h1M138 44h9M148 44h7M163 44h7M171 44h16M212 44h2M216 44h12M229 44h7M245 44h7M253 44h13M293 44h1M296 44h14M311 44h7M1 45h7M9 45h14M52 45h14M67 45h7M82 45h7M90 45h16M138 45h9M148 45h7M163 45h7M171 45h16M212 45h2M216 45h12M229 45h7M245 45h7M253 45h13M296 45h14M311 45h7M1 46h7M9 46h14M52 46h14M67 46h7M82 46h7M90 46h16M138 46h9M148 46h7M163 46h7M171 46h16M217 46h11M229 46h7M245 46h7M253 46h13M296 46h14M311 46h7M1 47h7M9 47h13M53 47h13M67 47h7M82 47h7M90 47h16M138 47h9M148 47h7M163 47h7M171 47h16M217 47h11M229 47h7M245 47h7M253 47h13M298 47h12M311 47h7M1 48h7M9 48h13M53 48h13M67 48h7M82 48h7M90 48h16M137 48h10M148 48h7M163 48h7M171 48h16M217 48h11M229 48h7M245 48h7M253 48h13M298 48h12M311 48h7M1 49h7M9 49h12M54 49h12M67 49h7M82 49h7M90 49h16M137 49h10M148 49h7M163 49h7M171 49h16M217 49h11M229 49h7M245 49h7M253 49h13M298 49h12M311 49h7M1 50h7M9 50h12M54 50h12M67 50h7M82 50h7M90 50h16M137 50h10M148 50h7M163 50h7M171 50h16M217 50h11M229 50h7M245 50h7M253 50h13M298 50h12M311 50h7M1 51h7M9 51h11M55 51h11M67 51h7M82 51h7M90 51h16M132 51h1M137 51h10M148 51h7M163 51h7M171 51h16M212 51h2M216 51h12M229 51h7M245 51h7M253 51h13M298 51h12M311 51h7M1 52h7M9 52h11M55 52h11M67 52h7M82 52h7M90 52h57M148 52h7M163 52h7M171 52h57M229 52h7M245 52h7M253 52h57M311 52h7M1 53h7M9 53h11M55 53h11M67 53h7M82 53h7M90 53h11M105 53h1M132 53h15M148 53h7M163 53h7M171 53h12M185 53h2M212 53h16M229 53h7M245 53h7M253 53h12M297 53h13M311 53h7M1 54h7M9 54h10M56 54h10M67 54h7M82 54h7M90 54h11M132 54h15M148 54h7M163 54h7M171 54h11M212 54h16M229 54h7M245 54h7M253 54h12M297 54h13M311 54h7M1 55h7M9 55h10M56 55h10M67 55h7M82 55h7M90 55h11M132 55h15M148 55h7M163 55h7M171 55h11M212 55h16M229 55h7M245 55h7M253 55h12M297 55h13M311 55h7M1 56h7M9 56h10M56 56h10M67 56h7M82 56h7M90 56h11M132 56h15M148 56h7M163 56h7M171 56h11M212 56h16M229 56h7M245 56h7M253 56h12M297 56h13M311 56h7M1 57h7M9 57h10M56 57h10M67 57h7M82 57h7M90 57h10M132 57h15M148 57h7M163 57h7M171 57h11M212 57h16M229 57h7M245 57h7M253 57h12M297 57h13M311 57h7M1 58h7M9 58h10M56 58h10M67 58h7M82 58h7M90 58h10M132 58h15M148 58h7M163 58h7M171 58h11M212 58h16M229 58h7M245 58h7M253 58h14M297 58h13M311 58h7M1 59h7M9 59h10M56 59h10M67 59h7M82 59h7M90 59h10M132 59h15M148 59h7M163 59h7M171 59h12M185 59h2M212 59h16M229 59h7M245 59h7M253 59h14M297 59h13M311 59h7M1 60h7M9 60h10M56 60h10M67 60h7M82 60h7M90 60h10M105 60h1M132 60h15M148 60h7M163 60h7M171 60h12M185 60h2M212 60h16M229 60h7M245 60h7M253 60h14M269 60h1M297 60h13M311 60h7M1 61h7M9 61h10M56 61h10M67 61h7M82 61h7M90 61h10M105 61h1M132 61h15M148 61h7M163 61h7M171 61h12M185 61h2M211 61h17M229 61h7M245 61h7M253 61h14M269 61h1M297 61h13M311 61h7M1 62h7M9 62h11M55 62h11M67 62h7M82 62h7M90 62h10M105 62h1M132 62h15M148 62h7M163 62h7M171 62h12M185 62h3M210 62h18M229 62h7M245 62h7M253 62h14M269 62h1M296 62h14M311 62h7M1 63h7M9 63h11M55 63h11M67 63h7M82 63h7M90 63h10M105 63h1M131 63h16M148 63h7M163 63h7M171 63h12M185 63h4M208 63h20M229 63h7M245 63h7M253 63h14M269 63h1M295 63h15M311 63h7M1 64h7M9 64h12M34 64h2M39 64h2M54 64h12M67 64h7M82 64h7M90 64h10M105 64h2M131 64h16M148 64h7M163 64h7M171 64h12M185 64h6M206 64h22M229 64h7M245 64h7M253 64h14M269 64h2M295 64h15M311 64h7M1 65h7M9 65h13M33 65h3M39 65h3M53 65h13M67 65h7M82 65h7M90 65h10M105 65h3M130 65h17M148 65h7M163 65h7M171 65h12M185 65h8M205 65h23M229 65h7M245 65h7M253 65h14M269 65h3M294 65h16M311 65h7M1 66h7M9 66h15M31 66h5M39 66h5M51 66h15M67 66h7M82 66h7M90 66h10M105 66h4M129 66h18M148 66h7M163 66h7M171 66h12M185 66h9M203 66h25M229 66h7M245 66h7M253 66h14M269 66h4M293 66h17M311 66h7M1 67h7M9 67h27M39 67h27M67 67h7M82 67h7M90 67h10M105 67h8M123 67h2M129 67h18M148 67h7M163 67h7M171 67h12M185 67h10M202 67h26M229 67h7M245 67h7M253 67h14M269 67h8M287 67h2M293 67h17M311 67h7M1 68h7M9 68h27M39 68h27M67 68h7M82 68h7M90 68h10M105 68h8M130 68h17M148 68h7M163 68h7M171 68h12M185 68h8M202 68h26M229 68h7M245 68h7M253 68h14M269 68h8M294 68h16M311 68h7M1 69h7M9 69h26M40 69h26M67 69h7M82 69h7M90 69h10M105 69h8M130 69h17M148 69h7M163 69h7M171 69h12M185 69h8M203 69h25M229 69h7M245 69h7M253 69h14M269 69h8M294 69h16M311 69h7M1 70h7M9 70h26M40 70h26M67 70h7M82 70h7M90 70h10M105 70h8M130 70h17M148 70h7M163 70h7M171 70h12M185 70h7M204 70h6M214 70h14M229 70h7M245 70h7M253 70h14M269 70h8M294 70h16M311 70h7M1 71h7M9 71h25M41 71h25M67 71h7M82 71h7M90 71h10M105 71h8M130 71h17M148 71h7M163 71h7M171 71h12M185 71h7M206 71h4M213 71h15M229 71h7M245 71h7M253 71h14M269 71h8M294 71h16M311 71h7M1 72h7M9 72h24M42 72h24M67 72h7M82 72h7M90 72h10M105 72h8M130 72h17M148 72h7M163 72h7M171 72h12M185 72h7M206 72h2M212 72h16M229 72h7M245 72h7M253 72h14M269 72h8M294 72h16M311 72h7M1 73h7M9 73h23M43 73h23M67 73h7M82 73h7M90 73h10M105 73h8M128 73h19M148 73h7M163 73h7M171 73h12M185 73h7M212 73h16M229 73h7M245 73h7M253 73h14M269 73h8M292 73h18M311 73h7M1 74h7M9 74h21M45 74h21M67 74h7M82 74h7M90 74h10M105 74h8M128 74h19M148 74h7M163 74h7M171 74h12M185 74h7M211 74h17M229 74h7M245 74h7M253 74h14M269 74h8M292 74h18M311 74h7M1 75h7M9 75h57M67 75h7M82 75h7M90 75h10M105 75h8M128 75h7M136 75h11M148 75h7M163 75h7M171 75h12M185 75h7M212 75h3M218 75h10M229 75h7M245 75h7M253 75h14M269 75h8M292 75h6M299 75h11M311 75h7M1 76h7M9 76h57M67 76h7M82 76h7M90 76h10M105 76h8M128 76h6M137 76h10M148 76h7M163 76h7M171 76h12M185 76h7M212 76h4M217 76h11M229 76h7M245 76h7M253 76h14M269 76h8M292 76h5M300 76h10M311 76h7M1 77h7M9 77h57M67 77h7M82 77h7M90 77h10M105 77h8M128 77h5M138 77h9M148 77h7M163 77h7M171 77h12M185 77h7M212 77h1M215 77h1M217 77h1M220 77h8M229 77h7M245 77h7M253 77h9M264 77h3M269 77h8M292 77h4M301 77h9M311 77h7M1 78h7M9 78h57M67 78h7M82 78h7M90 78h10M105 78h8M128 78h4M139 78h8M148 78h7M163 78h7M171 78h11M186 78h6M211 78h1M221 78h7M229 78h7M245 78h7M253 78h8M265 78h2M269 78h8M292 78h4M301 78h9M311 78h7M1 79h7M9 79h57M67 79h7M82 79h7M90 79h10M105 79h8M128 79h4M139 79h8M148 79h7M163 79h7M171 79h11M186 79h6M211 79h1M221 79h7M229 79h7M245 79h7M253 79h7M269 79h8M292 79h3M302 79h8M311 79h7M1 80h7M9 80h57M67 80h7M82 80h7M90 80h10M105 80h8M128 80h3M140 80h7M148 80h7M163 80h7M171 80h10M187 80h5M210 80h2M221 80h7M229 80h7M245 80h7M253 80h7M269 80h8M292 80h2M303 80h7M311 80h7M1 81h7M9 81h57M67 81h7M82 81h7M90 81h10M105 81h8M128 81h3M140 81h7M148 81h7M163 81h7M171 81h10M187 81h5M210 81h3M215 81h1M217 81h1M220 81h8M229 81h7M245 81h7M253 81h7M269 81h8M292 81h3M302 81h8M311 81h7M1 82h7M9 82h57M67 82h7M82 82h7M90 82h10M105 82h7M129 82h2M140 82h7M148 82h7M163 82h7M171 82h10M187 82h5M209 82h6M218 82h10M229 82h7M245 82h7M253 82h7M269 82h7M293 82h3M301 82h9M311 82h7M1 83h7M9 83h57M67 83h7M82 83h7M90 83h10M105 83h7M129 83h2M140 83h7M148 83h7M163 83h7M171 83h11M186 83h6M209 83h5M219 83h9M229 83h7M245 83h7M253 83h7M269 83h7M293 83h3M301 83h9M311 83h7M1 84h7M9 84h57M67 84h7M82 84h7M90 84h11M104 84h8M129 84h2M140 84h7M148 84h7M163 84h7M171 84h11M186 84h6M208 84h6M219 84h9M229 84h7M245 84h7M253 84h7M269 84h7M293 84h4M300 84h10M311 84h7M1 85h7M9 85h65M82 85h7M90 85h12M103 85h8M130 85h2M135 85h1M139 85h16M163 85h7M171 85h12M185 85h7M208 85h7M218 85h18M245 85h7M253 85h8M264 85h4M269 85h6M294 85h4M299 85h19M1 86h7M9 86h50M63 86h3M69 86h5M82 86h7M90 86h50M143 86h4M150 86h5M163 86h7M171 86h50M223 86h1M229 86h7M245 86h7M253 86h54M312 86h6M1 87h7M9 87h51M61 87h6M68 87h6M82 87h7M90 87h51M142 87h6M149 87h6M163 87h7M171 87h52M224 87h5M230 87h6M245 87h7M253 87h53M307 87h5M313 87h5M1 88h7M9 88h51M61 88h6M68 88h6M82 88h7M90 88h52M143 88h5M149 88h6M163 88h7M171 88h51M223 88h1M225 88h5M231 88h5M245 88h7M253 88h52M306 88h6M313 88h5M1 89h7M9 89h51M61 89h6M68 89h6M82 89h7M90 89h53M144 89h4M149 89h6M163 89h7M171 89h51M223 89h2M226 89h4M231 89h5M245 89h7M253 89h52M306 89h12M1 90h7M9 90h52M62 90h4M67 90h7M82 90h7M90 90h54M145 90h3M149 90h6M163 90h7M171 90h51M223 90h7M231 90h5M245 90h7M253 90h52M306 90h12M1 91h7M9 91h52M67 91h7M82 91h7M90 91h55M147 91h1M149 91h6M163 91h7M171 91h51M223 91h7M231 91h5M245 91h7M253 91h52M306 91h12M1 92h7M9 92h52M62 92h4M67 92h7M82 92h7M90 92h56M149 92h6M163 92h7M171 92h51M223 92h7M231 92h5M245 92h7M253 92h52M306 92h12M1 93h7M9 93h52M62 93h4M67 93h7M82 93h7M90 93h55M147 93h1M149 93h6M163 93h7M171 93h51M223 93h7M231 93h5M245 93h7M253 93h52M306 93h12M1 94h7M9 94h53M63 94h2M66 94h8M82 94h7M90 94h54M145 94h3M149 94h6M163 94h7M171 94h51M223 94h7M231 94h5M245 94h7M253 94h52M306 94h12M1 95h8M10 95h52M63 95h2M66 95h8M82 95h8M91 95h52M144 95h4M149 95h6M163 95h8M172 95h50M223 95h7M231 95h5M245 95h8M254 95h51M306 95h12M1 96h9M58 96h4M63 96h2M66 96h8M82 96h9M139 96h3M143 96h5M149 96h6M163 96h9M220 96h2M223 96h7M231 96h5M245 96h9M302 96h3M306 96h12M1 97h62M65 97h9M82 97h59M142 97h6M149 97h6M163 97h60M224 97h5M230 97h6M245 97h60M306 97h12M1 98h62M65 98h9M82 98h58M143 98h4M150 98h5M163 98h61M229 98h7M245 98h58M310 98h8M1 99h73M82 99h73M163 99h73M245 99h73M2 100h71M83 100h71M164 100h71M246 100h71M2 101h71M83 101h71M164 101h71M246 101h71M3 102h69M84 102h69M165 102h69M247 102h69M5 103h65M86 103h65M167 103h65M249 103h65" />
<path stroke="#808080" d="M75 6h1M156 6h1M237 6h1M319 6h1M75 7h1M156 7h1M237 7h1M319 7h1M75 8h1M156 8h1M237 8h1M319 8h1M75 9h1M156 9h1M237 9h1M319 9h1M75 10h1M156 10h1M237 10h1M319 10h1M75 11h1M156 11h1M237 11h1M319 11h1M75 12h1M156 12h1M237 12h1M319 12h1M75 13h1M156 13h1M237 13h1M319 13h1M75 14h1M156 14h1M237 14h1M319 14h1M75 15h1M156 15h1M237 15h1M319 15h1M75 16h1M156 16h1M237 16h1M319 16h1M75 17h1M156 17h1M237 17h1M319 17h1M75 18h1M156 18h1M237 18h1M319 18h1M75 19h1M156 19h1M237 19h1M319 19h1M75 20h1M156 20h1M237 20h1M319 20h1M75 21h1M156 21h1M237 21h1M319 21h1M75 22h1M156 22h1M237 22h1M319 22h1M75 23h1M156 23h1M237 23h1M319 23h1M75 24h1M156 24h1M237 24h1M319 24h1M75 25h1M156 25h1M237 25h1M319 25h1M75 26h1M156 26h1M237 26h1M319 26h1M75 27h1M156 27h1M237 27h1M319 27h1M75 28h1M156 28h1M237 28h1M319 28h1M75 29h1M156 29h1M237 29h1M319 29h1M75 30h1M156 30h1M237 30h1M319 30h1M75 31h1M156 31h1M237 31h1M319 31h1M75 32h1M156 32h1M237 32h1M319 32h1M75 33h1M156 33h1M237 33h1M319 33h1M75 34h1M156 34h1M237 34h1M319 34h1M75 35h1M156 35h1M237 35h1M319 35h1M75 36h1M156 36h1M237 36h1M319 36h1M75 37h1M156 37h1M237 37h1M319 37h1M75 38h1M156 38h1M237 38h1M319 38h1M75 39h1M156 39h1M237 39h1M319 39h1M75 40h1M156 40h1M237 40h1M319 40h1M75 41h1M156 41h1M237 41h1M319 41h1M75 42h1M156 42h1M237 42h1M319 42h1M75 43h1M156 43h1M237 43h1M319 43h1M75 44h1M156 44h1M237 44h1M319 44h1M75 45h1M156 45h1M237 45h1M319 45h1M75 46h1M156 46h1M237 46h1M319 46h1M75 47h1M156 47h1M237 47h1M319 47h1M75 48h1M156 48h1M237 48h1M319 48h1M75 49h1M156 49h1M237 49h1M319 49h1M75 50h1M156 50h1M237 50h1M319 50h1M75 51h1M156 51h1M237 51h1M319 51h1M75 52h1M156 52h1M237 52h1M319 52h1M75 53h1M156 53h1M237 53h1M319 53h1M75 54h1M156 54h1M237 54h1M319 54h1M75 55h1M156 55h1M237 55h1M319 55h1M75 56h1M156 56h1M237 56h1M319 56h1M75 57h1M156 57h1M237 57h1M319 57h1M75 58h1M156 58h1M237 58h1M319 58h1M75 59h1M156 59h1M237 59h1M319 59h1M75 60h1M156 60h1M237 60h1M319 60h1M75 61h1M156 61h1M237 61h1M319 61h1M75 62h1M156 62h1M237 62h1M319 62h1M75 63h1M156 63h1M237 63h1M319 63h1M75 64h1M156 64h1M237 64h1M319 64h1M75 65h1M156 65h1M237 65h1M319 65h1M75 66h1M156 66h1M237 66h1M319 66h1M75 67h1M156 67h1M237 67h1M319 67h1M75 68h1M156 68h1M237 68h1M319 68h1M75 69h1M156 69h1M237 69h1M319 69h1M75 70h1M156 70h1M237 70h1M319 70h1M75 71h1M156 71h1M237 71h1M319 71h1M75 72h1M156 72h1M237 72h1M319 72h1M75 73h1M156 73h1M237 73h1M319 73h1M75 74h1M156 74h1M237 74h1M319 74h1M75 75h1M156 75h1M237 75h1M319 75h1M75 76h1M156 76h1M237 76h1M319 76h1M75 77h1M156 77h1M237 77h1M319 77h1M75 78h1M156 78h1M237 78h1M319 78h1M75 79h1M156 79h1M237 79h1M319 79h1M75 80h1M156 80h1M237 80h1M319 80h1M75 81h1M156 81h1M237 81h1M319 81h1M75 82h1M156 82h1M237 82h1M319 82h1M75 83h1M156 83h1M237 83h1M319 83h1M75 84h1M156 84h1M237 84h1M319 84h1M75 85h1M156 85h1M237 85h1M319 85h1M75 86h1M156 86h1M237 86h1M319 86h1M75 87h1M156 87h1M237 87h1M319 87h1M75 88h1M156 88h1M237 88h1M319 88h1M75 89h1M156 89h1M237 89h1M319 89h1M75 90h1M156 90h1M237 90h1M319 90h1M75 91h1M156 91h1M237 91h1M319 91h1M75 92h1M156 92h1M237 92h1M319 92h1M75 93h1M156 93h1M237 93h1M319 93h1M75 94h1M156 94h1M237 94h1M319 94h1M75 95h1M156 95h1M237 95h1M319 95h1M75 96h1M156 96h1M237 96h1M319 96h1M75 97h1M156 97h1M237 97h1M319 97h1M75 98h1M156 98h1M237 98h1M319 98h1M75 99h1M156 99h1M237 99h1M319 99h1M74 100h1M155 100h1M236 100h1M318 100h1M74 101h1M155 101h1M236 101h1M318 101h1M73 102h1M154 102h1M235 102h1M317 102h1M72 103h1M153 103h1M234 103h1M316 103h1M70 104h2M151 104h2M232 104h2M314 104h2M6 105h64M87 105h64M168 105h64M250 105h64" />
<path stroke="#ff0000" d="M98 19h3M273 19h1M275 19h1M277 19h3M281 19h1M283 19h2M286 19h2M97 20h8M263 20h2M275 20h1M277 20h3M281 20h1M283 20h1M285 20h2M97 21h8M262 21h4M275 21h1M277 21h3M281 21h1M283 21h1M285 21h2M97 22h8M194 22h13M262 22h4M276 22h1M281 22h1M285 22h2M97 23h8M195 23h4M261 23h6M277 23h9M97 24h8M260 24h8M278 24h8M98 25h6M261 25h6M98 26h6M262 26h4M99 27h4M262 27h4M100 28h2M263 28h2M128 38h1M287 38h1M128 39h2M286 39h1M128 40h3M207 40h1M285 40h1M128 41h4M208 41h2M284 41h1M128 42h4M209 42h2M282 42h2M289 42h4M128 43h4M210 43h2M282 43h2M289 43h4M129 44h3M208 44h4M283 44h1M290 44h3M129 45h3M208 45h4M283 45h1M290 45h3M129 46h3M207 46h5M283 46h1M290 46h3M129 47h3M207 47h5M283 47h1M290 47h3M129 48h3M207 48h5M283 48h1M290 48h3M129 49h3M207 49h5M283 49h1M290 49h3M129 50h2M208 50h4M283 50h1M290 50h2M129 51h3M209 51h3M283 51h1M290 51h2M106 53h3M187 53h3M271 53h2M279 53h1M107 54h2M187 54h4M271 54h2M279 54h1M106 55h3M187 55h5M270 55h3M279 55h1M106 56h3M187 56h5M270 56h3M279 56h1M106 57h3M187 57h5M270 57h3M279 57h1M106 58h3M187 58h5M270 58h3M279 58h1M106 59h3M187 59h4M270 59h3M279 59h1M106 60h3M187 60h4M270 60h3M279 60h1M106 61h4M187 61h2M270 61h4M279 61h2M106 62h4M188 62h2M270 62h4M279 62h2M106 63h4M189 63h2M278 63h1M107 64h3M191 64h1M277 64h1M108 65h2M276 65h1M109 66h1M275 66h1M135 76h2M298 76h2M134 77h4M297 77h4M133 78h6M297 78h4M133 79h6M296 79h6M132 80h8M277 80h8M295 80h8M132 81h8M200 81h4M277 81h9M296 81h6M132 82h8M192 82h13M276 82h2M281 82h1M286 82h1M297 82h4M132 83h8M276 83h2M279 83h1M281 83h1M283 83h3M287 83h1M297 83h4M132 84h8M276 84h2M279 84h1M281 84h1M283 84h3M287 84h1M298 84h2M136 85h3M275 85h2M278 85h2M281 85h1M283 85h3M287 85h1M289 85h1" />
<path stroke="#ff6666" d="M102 19h3M264 19h1M105 20h1M265 20h1M105 21h1M266 21h1M105 22h1M266 22h1M105 23h1M267 23h1M105 24h1M268 24h1M104 25h1M267 25h1M104 26h1M266 26h1M103 27h1M266 27h1M102 28h1M265 28h1M101 29h1M264 29h1M135 75h1M298 75h1M134 76h1M297 76h1M133 77h1M296 77h1M132 78h1M296 78h1M132 79h1M295 79h1M131 80h1M294 80h1M131 81h1M295 81h1M131 82h1M296 82h1M131 83h1M296 83h1M131 84h1M297 84h1M132 85h3M298 85h1" />
<path stroke="#eaa800" d="M108 19h4M191 19h1M271 19h1M274 19h1M276 19h1M109 20h4M191 20h2M272 20h1M274 20h1M276 20h1M109 21h5M190 21h4M272 21h1M274 21h1M276 21h1M109 22h2M112 22h1M114 22h1M190 22h3M272 22h3M277 22h2M110 23h6M189 23h4M110 24h7M189 24h4M188 25h4M272 25h1M188 26h3M272 26h1M187 27h3M272 27h1M187 28h2M214 28h1M272 28h1M187 29h2M214 29h1M272 29h1M214 30h1M272 30h1M214 31h1M272 31h1M214 32h1M272 32h1M214 33h1M270 33h3M214 34h1M270 34h1M272 34h1M214 35h1M270 35h3M214 36h1M197 37h1M214 37h1M115 38h2M196 38h3M214 38h1M113 39h1M115 39h3M194 39h4M214 39h1M115 40h3M193 40h1M196 40h2M214 40h1M113 41h1M115 41h3M194 41h2M214 41h1M115 42h3M119 42h1M195 42h3M214 42h1M272 42h4M113 43h1M115 43h3M214 43h1M272 43h4M285 43h2M115 44h3M214 44h1M272 44h4M113 45h1M115 45h3M199 45h1M214 45h1M272 45h4M279 45h2M285 45h2M115 46h3M119 46h1M198 46h3M272 46h4M279 46h1M113 47h1M115 47h3M198 47h3M272 47h4M279 47h2M285 47h2M115 48h3M122 48h1M199 48h1M272 48h4M279 48h1M113 49h1M115 49h3M122 49h1M272 49h4M279 49h2M285 49h2M115 50h3M119 50h1M122 50h1M199 50h2M272 50h4M279 50h1M113 51h1M115 51h3M122 51h2M214 51h1M272 51h4M279 51h2M285 51h2M114 53h2M120 53h3M124 53h1M184 53h1M276 53h2M282 53h2M287 53h4M115 54h1M118 54h1M120 54h3M198 54h2M283 54h1M287 54h4M115 55h1M120 55h3M124 55h1M276 55h2M282 55h2M287 55h4M115 56h1M120 56h3M199 56h1M283 56h1M287 56h4M120 57h3M124 57h1M198 57h3M276 57h2M282 57h2M287 57h4M118 58h1M120 58h3M198 58h3M283 58h1M287 58h4M120 59h3M124 59h1M184 59h1M199 59h1M276 59h2M282 59h2M287 59h4M120 60h3M184 60h1M287 60h4M120 61h3M124 61h1M184 61h1M276 61h2M287 61h4M118 62h1M120 62h3M184 62h1M201 62h3M287 62h4M120 63h3M124 63h1M184 63h1M203 63h2M120 64h3M184 64h1M201 64h2M205 64h1M120 65h3M124 65h1M184 65h1M201 65h4M121 66h2M184 66h1M200 66h3M184 67h1M201 67h1M184 68h1M184 69h1M290 69h3M184 70h1M290 70h1M292 70h1M184 71h1M290 71h3M184 72h1M290 72h1M184 73h1M290 73h1M184 74h1M290 74h1M184 75h1M210 75h2M290 75h1M184 76h1M210 76h2M290 76h1M209 77h3M290 77h1M208 78h3M290 78h1M207 79h4M290 79h1M121 80h7M206 80h4M122 81h6M206 81h4M123 82h1M125 82h1M127 82h2M206 82h3M284 82h2M288 82h3M124 83h5M205 83h4M286 83h1M288 83h1M290 83h1M125 84h4M206 84h2M286 84h1M288 84h1M290 84h1M126 85h4M207 85h1M286 85h1M288 85h1M291 85h1" />
<path stroke="#ffd800" d="M112 19h15M192 19h15M280 19h1M282 19h1M285 19h1M113 20h13M194 20h1M196 20h1M198 20h1M200 20h1M202 20h1M204 20h1M206 20h1M280 20h1M282 20h1M284 20h1M114 21h12M194 21h13M280 21h1M282 21h1M284 21h1M116 22h1M118 22h1M120 22h1M122 22h1M124 22h2M279 22h2M282 22h3M116 23h9M117 24h8M271 25h1M273 25h1M271 26h1M273 26h1M271 27h1M273 27h1M215 28h1M271 28h1M273 28h1M215 29h1M271 29h1M273 29h1M215 30h1M271 30h1M273 30h1M215 31h1M271 31h1M273 31h1M215 32h1M269 32h3M273 32h2M215 33h1M269 33h1M273 33h2M215 34h1M269 34h1M271 34h1M273 34h3M215 35h1M269 35h1M273 35h3M215 36h1M269 36h7M203 37h1M215 37h1M270 37h4M123 38h2M199 38h6M215 38h1M122 39h3M126 39h1M199 39h1M201 39h1M203 39h3M215 39h1M122 40h3M198 40h6M206 40h1M215 40h1M119 41h2M122 41h3M126 41h1M204 41h2M215 41h1M120 42h1M122 42h3M198 42h6M215 42h1M286 42h3M122 43h3M126 43h1M215 43h1M287 43h2M122 44h3M215 44h1M285 44h4M119 45h2M122 45h3M126 45h1M132 45h6M200 45h1M215 45h1M281 45h1M287 45h2M293 45h1M120 46h1M122 46h3M132 46h6M201 46h1M280 46h2M285 46h4M293 46h1M122 47h3M126 47h1M132 47h1M137 47h1M201 47h1M281 47h1M287 47h2M293 47h1M123 48h2M200 48h1M280 48h2M285 48h4M119 49h2M123 49h2M126 49h1M281 49h1M287 49h2M120 50h1M123 50h2M280 50h2M285 50h4M124 51h1M126 51h1M133 51h4M215 51h1M281 51h1M287 51h2M101 53h4M111 53h1M113 53h1M183 53h1M274 53h2M281 53h1M113 54h2M117 54h1M274 54h4M281 54h2M111 55h1M113 55h2M117 55h2M274 55h2M281 55h1M113 56h2M198 56h1M274 56h4M281 56h2M100 57h1M105 57h1M111 57h1M113 57h3M197 57h1M269 57h1M274 57h2M281 57h1M100 58h6M113 58h3M117 58h1M197 58h1M269 58h1M274 58h4M281 58h2M100 59h6M111 59h1M113 59h3M117 59h2M183 59h1M198 59h1M269 59h1M274 59h2M281 59h1M113 60h3M183 60h1M274 60h4M111 61h1M113 61h3M183 61h1M274 61h2M113 62h3M117 62h1M183 62h1M195 62h6M274 62h3M111 63h1M113 63h3M117 63h2M183 63h1M193 63h2M113 64h3M183 64h1M192 64h1M195 64h6M111 65h1M113 65h3M183 65h1M193 65h3M197 65h1M199 65h1M113 66h2M183 66h1M194 66h6M183 67h1M195 67h1M289 67h4M183 68h1M287 68h7M183 69h1M287 69h3M293 69h1M183 70h1M287 70h3M291 70h1M293 70h1M183 71h1M288 71h2M293 71h1M183 72h1M288 72h2M291 72h3M183 73h1M289 73h1M291 73h1M183 74h1M289 74h1M291 74h1M183 75h1M289 75h1M291 75h1M183 76h1M289 76h1M291 76h1M289 77h1M291 77h1M289 78h1M291 78h1M289 79h1M291 79h1M113 80h8M113 81h9M112 82h2M115 82h1M117 82h1M119 82h1M121 82h1M278 82h3M282 82h2M112 83h12M192 83h13M278 83h1M280 83h1M282 83h1M112 84h13M192 84h1M194 84h1M196 84h1M198 84h1M200 84h1M202 84h1M204 84h1M278 84h1M280 84h1M282 84h1M111 85h15M192 85h15M277 85h1M280 85h1M282 85h1" />
<path stroke="#d8d8d8" d="M135 19h1M299 19h3M134 20h3M296 20h7M133 21h2M136 21h2M296 21h7M133 22h2M136 22h2M296 22h7M133 23h2M136 23h2M296 23h7M133 24h2M136 24h2M296 24h7M133 25h2M136 25h2M298 25h4M133 26h2M136 26h2M299 26h2M133 27h2M136 27h2M133 28h2M136 28h2M133 29h2M136 29h2M133 30h2M136 30h2M133 31h2M136 31h2M133 32h2M136 32h2M133 33h2M136 33h2M133 34h2M136 34h2M133 35h2M136 35h2M133 36h2M136 36h2M133 37h2M136 37h2M133 38h2M136 38h2M133 39h2M136 39h2M133 40h2M136 40h2M133 41h2M136 41h2M133 42h2M136 42h2M133 43h2M136 43h2M133 44h2M136 44h2M100 60h2M103 60h2M100 61h2M103 61h2M100 62h2M103 62h2M100 63h2M103 63h2M100 64h2M103 64h2M100 65h2M103 65h2M100 66h2M103 66h2M100 67h2M103 67h2M100 68h2M103 68h2M100 69h2M103 69h2M100 70h2M103 70h2M100 71h2M103 71h2M100 72h2M103 72h2M100 73h2M103 73h2M100 74h2M103 74h2M100 75h2M103 75h2M100 76h2M103 76h2M100 77h2M103 77h2M100 78h2M103 78h2M262 78h2M100 79h2M103 79h2M261 79h4M100 80h2M103 80h2M260 80h7M100 81h2M103 81h2M260 81h7M100 82h2M103 82h2M260 82h7M100 83h2M103 83h2M260 83h7M101 84h3M260 84h7M102 85h1M261 85h3" />
<path stroke="#6b6b6b" d="M183 19h1M184 20h1M184 21h1M185 23h1M186 24h1M186 25h1M186 26h1M185 27h1M183 29h1M36 31h3M37 32h3M38 33h3M39 34h3M40 35h3M41 36h3M42 37h3M43 38h3M44 39h3M45 40h3M46 41h3M47 42h2M48 43h2M49 44h2M49 45h3M50 46h2M51 47h2M51 48h2M52 49h2M52 50h2M52 51h3M53 52h2M53 53h2M53 54h3M53 55h3M54 56h2M54 57h2M54 58h2M54 59h2M54 60h2M53 61h3M53 62h2M51 63h4M50 64h4M49 65h4M48 66h3M39 69h1M39 70h1M39 71h2M40 72h2M41 73h2M42 74h3M215 75h1M213 77h1M212 78h1M212 79h1M212 80h1M213 81h1M214 83h1M214 84h1M215 85h1" />
<path stroke="#37a4b7" d="M214 19h2M215 20h2M215 21h2M216 22h2M199 23h8M216 23h2M196 24h11M216 24h2M197 25h1M199 25h2M202 25h2M205 25h2M216 25h1M216 26h1M215 27h1M295 27h1M295 28h1M295 29h1M295 30h1M295 31h1M295 32h1M295 33h1M295 34h1M295 35h1M295 36h1M295 37h1M280 38h5M289 38h1M295 38h1M282 39h2M289 39h2M295 39h1M288 40h4M295 40h1M206 41h2M287 41h6M295 41h1M204 42h5M295 42h1M200 43h10M295 43h1M202 44h6M295 44h1M203 45h5M295 45h1M204 46h3M295 46h1M204 47h3M204 48h3M204 49h3M204 50h4M205 51h4M295 51h1M190 53h4M267 53h1M191 54h4M192 55h3M192 56h3M192 57h3M192 58h3M267 58h1M191 59h5M267 59h1M191 60h6M267 60h1M189 61h10M267 61h1M190 62h5M267 62h1M191 63h2M267 63h1M270 63h6M267 64h1M271 64h4M267 65h1M272 65h2M279 65h2M267 66h1M273 66h1M278 66h5M267 67h1M267 68h1M267 69h1M267 70h1M267 71h1M267 72h1M267 73h1M267 74h1M267 75h1M267 76h1M183 77h1M267 77h1M182 78h1M182 79h1M192 79h2M195 79h2M198 79h2M201 79h1M181 80h2M192 80h11M181 81h2M192 81h8M181 82h2M182 83h2M182 84h2M183 85h2" />
<path stroke="#ba0000" d="M269 19h2M272 19h1M270 20h2M273 20h1M270 21h2M273 21h1M193 22h1M270 22h2M275 22h1M193 23h2M271 23h6M193 24h1M271 24h7M192 25h2M191 26h2M190 27h2M189 28h2M189 29h1M188 30h2M187 31h2M187 32h1M186 33h1M185 34h2M109 38h2M274 38h1M108 39h3M275 39h1M107 40h4M276 40h1M107 41h4M191 41h1M277 41h1M106 42h5M189 42h2M270 42h2M277 42h3M106 43h5M188 43h2M269 43h3M277 43h5M106 44h5M128 44h1M187 44h5M268 44h4M277 44h1M289 44h1M106 45h5M128 45h1M187 45h5M267 45h5M277 45h1M289 45h1M106 46h5M128 46h1M187 46h6M267 46h5M277 46h1M289 46h1M106 47h5M128 47h1M187 47h6M267 47h5M277 47h1M289 47h1M106 48h5M128 48h1M187 48h6M267 48h5M277 48h1M289 48h1M106 49h5M128 49h1M187 49h6M267 49h5M277 49h1M289 49h1M106 50h5M128 50h1M187 50h5M267 50h5M277 50h1M289 50h1M106 51h5M128 51h1M187 51h4M267 51h5M277 51h1M289 51h1M109 53h1M127 53h5M208 53h4M273 53h1M285 53h1M291 53h5M109 54h1M127 54h5M207 54h5M273 54h1M285 54h1M291 54h5M109 55h1M127 55h5M206 55h6M273 55h1M285 55h1M291 55h5M109 56h1M127 56h5M206 56h6M273 56h1M285 56h1M291 56h5M109 57h1M127 57h5M206 57h6M273 57h1M285 57h1M291 57h5M109 58h1M127 58h5M206 58h6M273 58h1M285 58h1M291 58h5M109 59h1M127 59h5M207 59h5M273 59h1M285 59h1M291 59h5M109 60h1M127 60h5M207 60h5M273 60h1M285 60h1M291 60h4M127 61h5M209 61h2M281 61h5M291 61h3M127 62h5M208 62h2M283 62h3M291 62h2M127 63h4M207 63h1M285 63h1M127 64h4M286 64h1M127 65h3M287 65h1M127 66h2M288 66h1M212 70h2M212 71h1M211 72h1M210 73h2M209 74h2M209 75h1M208 76h2M207 77h2M206 78h2M205 79h2M205 80h1M285 80h7M204 81h2M286 81h6M205 82h1M287 82h1M291 82h2M289 83h1M291 83h2M289 84h1M291 84h2M290 85h1M292 85h2" />
<path stroke="#257dbc" d="M294 19h1M213 20h2M294 20h2M213 21h2M294 21h2M212 22h4M294 22h2M212 23h4M294 23h2M194 24h2M212 24h4M294 24h2M194 25h1M196 25h1M213 25h3M294 25h2M193 26h2M213 26h3M294 26h2M192 27h2M214 27h1M294 27h1M191 28h3M294 28h1M190 29h3M294 29h1M190 30h2M294 30h1M189 31h3M294 31h1M188 32h3M294 32h1M187 33h2M294 33h1M187 34h2M294 34h1M294 35h1M294 36h1M294 37h1M270 38h2M277 38h3M294 38h1M269 39h4M278 39h4M294 39h1M268 40h6M280 40h2M294 40h1M192 41h2M268 41h7M294 41h1M191 42h4M267 42h3M294 42h1M190 43h10M266 43h3M294 43h1M192 44h6M266 44h2M294 44h1M192 45h5M266 45h1M294 45h1M193 46h4M203 46h1M266 46h1M294 46h1M193 47h4M203 47h1M266 47h1M193 48h4M203 48h1M266 48h1M193 49h4M203 49h1M266 49h1M192 50h5M203 50h1M266 50h1M191 51h6M203 51h2M266 51h1M294 51h1M194 53h2M202 53h6M268 53h1M296 53h1M195 54h1M202 54h5M296 54h1M195 55h1M202 55h4M296 55h1M195 56h1M202 56h4M296 56h1M195 57h1M202 57h4M296 57h1M195 58h1M202 58h4M268 58h1M296 58h1M202 59h5M268 59h1M296 59h1M201 60h6M268 60h1M295 60h2M199 61h10M268 61h1M294 61h3M204 62h4M268 62h1M293 62h3M205 63h2M268 63h1M288 63h7M268 64h1M281 64h2M289 64h6M268 65h1M281 65h4M290 65h4M268 66h1M283 66h3M291 66h2M268 67h1M268 68h1M268 69h1M210 70h2M268 70h1M210 71h2M268 71h1M208 72h3M268 72h1M207 73h3M268 73h1M207 74h2M268 74h1M206 75h3M268 75h1M205 76h3M268 76h1M184 77h1M205 77h2M268 77h1M183 78h3M204 78h2M267 78h2M183 79h3M202 79h1M204 79h1M267 79h2M183 80h4M203 80h2M267 80h2M183 81h4M267 81h2M183 82h4M267 82h2M184 83h2M267 83h2M184 84h2M267 84h2M268 85h1" />
<path stroke="#a0a0a0" d="M135 21h1M135 22h1M135 23h1M135 24h1M135 25h1M296 25h2M302 25h1M135 26h1M298 26h1M301 26h1M135 27h1M299 27h2M135 28h1M135 29h1M135 30h1M135 31h1M135 32h1M135 33h1M135 34h1M135 35h1M135 36h1M135 37h1M135 38h1M135 39h1M135 40h1M135 41h1M135 42h1M135 43h1M135 44h1M102 60h1M102 61h1M102 62h1M102 63h1M102 64h1M102 65h1M102 66h1M102 67h1M102 68h1M102 69h1M102 70h1M102 71h1M102 72h1M102 73h1M102 74h1M102 75h1M102 76h1M102 77h1M262 77h2M102 78h1M261 78h1M264 78h1M102 79h1M260 79h1M265 79h2M102 80h1M102 81h1M102 82h1M102 83h1" />
<path stroke="#7f0000" d="M110 25h1M112 25h1M110 26h1M112 26h1M110 27h1M112 27h1M110 28h1M112 28h1M110 29h1M112 29h1M110 30h1M112 30h1M110 31h1M112 31h1M108 32h3M112 32h2M108 33h1M112 33h2M108 34h1M110 34h1M112 34h3M108 35h1M112 35h3M116 35h1M118 35h1M120 35h1M122 35h1M124 35h1M108 36h7M116 36h1M118 36h1M120 36h1M122 36h1M124 36h1M109 37h4M115 37h10M113 67h10M125 67h4M113 68h1M115 68h1M117 68h1M119 68h1M121 68h1M123 68h7M113 69h1M115 69h1M117 69h1M119 69h1M121 69h1M123 69h3M129 69h1M123 70h3M127 70h1M129 70h1M124 71h2M129 71h1M124 72h2M127 72h3M125 73h1M127 73h1M125 74h1M127 74h1M125 75h1M127 75h1M125 76h1M127 76h1M125 77h1M127 77h1M125 78h1M127 78h1M125 79h1M127 79h1" />
<path stroke="#4f0000" d="M111 25h1M111 26h1M111 27h1M111 28h1M111 29h1M111 30h1M111 31h1M111 32h1M109 33h3M109 34h1M111 34h1M109 35h3M115 35h1M117 35h1M119 35h1M121 35h1M123 35h1M276 35h1M115 36h1M117 36h1M119 36h1M121 36h1M123 36h1M114 68h1M116 68h1M118 68h1M120 68h1M122 68h1M114 69h1M116 69h1M118 69h1M120 69h1M122 69h1M126 69h3M286 69h1M126 70h1M128 70h1M126 71h3M126 72h1M126 73h1M126 74h1M126 75h1M126 76h1M126 77h1M126 78h1M126 79h1" />
<path stroke="#d87c77" d="M113 25h5M195 25h1M274 25h5M113 26h5M195 26h3M274 26h5M113 27h6M194 27h5M274 27h6M113 28h7M194 28h6M274 28h7M113 29h8M194 29h7M274 29h8M113 30h9M194 30h8M274 30h9M113 31h10M194 31h9M274 31h10M114 32h9M194 32h10M275 32h9M114 33h10M194 33h12M275 33h10M115 34h10M195 34h12M276 34h10M196 35h10M277 35h9M197 36h9M215 47h2M132 48h1M135 48h2M212 48h1M293 48h1M296 48h2M132 49h1M212 49h1M215 49h2M293 49h1M131 50h3M135 50h2M212 50h2M292 50h3M296 50h2M101 54h2M104 54h3M185 54h2M265 54h2M268 54h3M105 55h1M182 55h2M186 55h1M269 55h1M101 56h2M105 56h1M186 56h1M265 56h2M269 56h1M182 57h2M193 68h9M193 69h10M277 69h9M113 70h10M192 70h12M277 70h10M114 71h10M193 71h12M278 71h10M115 72h9M195 72h10M279 72h9M115 73h10M196 73h9M279 73h10M116 74h9M197 74h8M280 74h9M117 75h8M198 75h7M281 75h8M118 76h7M199 76h6M282 76h7M119 77h6M200 77h5M283 77h6M120 78h5M201 78h3M284 78h5M120 79h5M203 79h1M284 79h5" />
<path stroke="#ff938c" d="M118 25h7M198 25h1M201 25h1M204 25h1M279 25h7M118 26h7M198 26h9M279 26h7M119 27h6M199 27h8M280 27h6M120 28h5M200 28h7M281 28h5M121 29h4M201 29h6M282 29h4M122 30h3M202 30h5M283 30h3M123 31h2M203 31h4M284 31h2M123 32h2M204 32h3M284 32h2M124 33h1M206 33h1M285 33h1M212 46h5M133 47h4M212 47h3M294 47h4M133 48h2M213 48h4M294 48h2M133 49h4M213 49h2M294 49h4M134 50h1M214 50h3M295 50h1M292 51h2M296 51h2M265 53h2M269 53h2M103 54h1M182 54h3M267 54h1M101 55h4M184 55h2M265 55h4M103 56h2M182 56h4M267 56h2M101 57h4M184 57h3M265 57h4M182 58h5M113 71h1M192 71h1M277 71h1M113 72h2M192 72h3M277 72h2M113 73h2M192 73h4M277 73h2M113 74h3M192 74h5M277 74h3M113 75h4M192 75h6M277 75h4M113 76h5M192 76h7M277 76h5M113 77h6M192 77h8M277 77h6M113 78h7M192 78h9M277 78h7M113 79h7M194 79h1M197 79h1M200 79h1M277 79h7" />
</svg>