<svg xmlns="http://www.w3.org/2000/svg" viewBox="0 -0.5 32 32" shape-rendering="crispEdges">
<metadata>Made with Pixels to Svg https://codepen.io/shshaw/pen/XbxvNj</metadata>
<path stroke="#808080" d="M5 0h22M3 1h2M27 1h2M2 2h1M29 2h1M1 3h1M30 3h1M0 4h1M31 4h1M0 5h1M31 5h1M0 6h1M31 6h1M0 7h1M31 7h1M0 8h1M31 8h1M0 9h1M31 9h1M0 10h1M31 10h1M0 11h1M31 11h1M0 12h1M31 12h1M0 13h1M31 13h1M0 14h1M31 14h1M0 15h1M31 15h1M0 16h1M31 16h1M0 17h1M31 17h1M0 18h1M31 18h1M0 19h1M31 19h1M0 20h1M31 20h1M0 21h1M31 21h1M0 22h1M31 22h1M0 23h1M31 23h1M0 24h1M31 24h1M0 25h1M31 25h1M0 26h1M31 26h1M0 27h1M31 27h1M1 28h1M30 28h1M2 29h1M29 29h1M3 30h2M27 30h2M5 31h22" />
<path stroke="#ffffff" d="M5 1h22M3 2h26M2 3h6M9 3h13M25 3h5M1 4h6M10 4h11M26 4h5M1 5h5M11 5h10M26 5h5M1 6h5M11 6h11M25 6h6M1 7h4M12 7h8M22 7h1M24 7h1M27 7h4M1 8h3M13 8h6M28 8h3M1 9h4M12 9h7M28 9h3M1 10h5M11 10h8M28 10h3M1 11h5M11 11h9M22 11h1M24 11h1M27 11h4M1 12h6M10 12h13M24 12h7M1 13h7M9 13h13M25 13h6M1 14h30M1 15h30M1 16h30M1 17h30M1 18h7M9 18h11M23 18h1M27 18h4M1 19h6M10 19h9M28 19h3M1 20h5M11 20h8M28 20h3M1 21h4M12 21h7M28 21h3M1 22h4M12 22h7M28 22h3M1 23h3M13 23h6M28 23h3M1 24h3M13 24h7M27 24h4M1 25h3M13 25h7M27 25h4M1 26h4M7 26h1M9 26h1M12 26h9M26 26h5M1 27h7M9 27h13M25 27h6M2 28h5M10 28h13M24 28h6M3 29h26M5 30h22" />
<path stroke="#ff6666" d="M8 3h1M9 4h1M10 5h1M10 6h1M11 7h1M12 8h1M11 9h1M10 10h1M10 11h1M9 12h1M8 13h1M24 18h3M27 19h1M27 20h1M27 21h1M27 22h1M27 23h1M26 24h1M26 25h1M25 26h1M24 27h1M23 28h1" />
<path stroke="#000000" d="M22 3h2M21 4h4M21 5h4M22 6h3M20 7h2M23 7h1M25 7h1M19 8h8M19 9h8M19 10h8M20 11h2M23 11h1M25 11h1M23 12h1M22 13h2M7 19h2M6 20h4M5 21h6M5 22h6M4 23h8M4 24h8M4 25h8M5 26h2M8 26h1M8 27h1M7 28h2" />
<path stroke="#6b6b6b" d="M24 3h1M25 4h1M25 5h1M26 7h1M27 8h1M27 9h1M27 10h1M26 11h1M24 13h1M8 18h1M9 19h1M10 20h1M11 21h1M11 22h1M12 23h1M12 24h1M12 25h1M10 26h2M9 28h1" />
<path stroke="#ff0000" d="M7 4h2M6 5h4M6 6h4M5 7h6M4 8h8M5 9h6M6 10h4M6 11h4M7 12h2M20 18h3M19 19h8M19 20h8M19 21h8M19 22h8M19 23h8M20 24h6M20 25h6M21 26h4M22 27h2" />
</svg>